<svg height="512" viewBox="0 0 64 64" width="512" xmlns="http://www.w3.org/2000/svg"><g id="programming"><path d="m6 40h2v2h-2z"/><path d="m10 40h11v2h-11z"/><path d="m6 36h2v2h-2z"/><path d="m10 36h11v2h-11z"/><path d="m6 18h2v2h-2z"/><path d="m10 18h11v2h-11z"/><path d="m6 22h2v2h-2z"/><path d="m10 22h11v2h-11z"/><path d="m56 18h2v2h-2z"/><path d="m43 18h11v2h-11z"/><path d="m56 22h2v2h-2z"/><path d="m43 22h11v2h-11z"/><path d="m9 29v2a3 3 0 0 0 3 3h9v-2h-9a1 1 0 0 1 -1-1v-2a3 3 0 0 0 -3-3h-2v2h2a1 1 0 0 1 1 1z"/><path d="m56 40h2v2h-2z"/><path d="m43 40h11v2h-11z"/><path d="m56 36h2v2h-2z"/><path d="m43 36h11v2h-11z"/><path d="m55 31v-2a1 1 0 0 1 1-1h2v-2h-2a3 3 0 0 0 -3 3v2a1 1 0 0 1 -1 1h-9v2h9a3 3 0 0 0 3-3z"/><path d="m59 14h-17v-8c0-2.75-5.18-4-10-4s-10 1.25-10 4v8h-17a3.009 3.009 0 0 0 -3 3v32a3.009 3.009 0 0 0 3 3h20v4h-5a3 3 0 0 0 0 6h24a3 3 0 0 0 0-6h-5v-4h20a3.009 3.009 0 0 0 3-3v-32a3.009 3.009 0 0 0 -3-3zm-27-10c5.25 0 8 1.49 8 2s-2.75 2-8 2-8-1.49-8-2 2.75-2 8-2zm-8 4.52a18.866 18.866 0 0 0 8 1.48 18.866 18.866 0 0 0 8-1.48v3.48c0 .51-2.75 2-8 2s-8-1.49-8-2zm0 6a18.866 18.866 0 0 0 8 1.48 18.866 18.866 0 0 0 8-1.48v3.48c0 .51-2.75 2-8 2s-8-1.49-8-2zm0 6a18.866 18.866 0 0 0 8 1.48 18.866 18.866 0 0 0 8-1.48v3.48c0 .17-.71.89-2.85 1.42l-.2-.2a1.014 1.014 0 0 0 -1.22-.15l-.59.36-.17-.67a1 1 0 0 0 -.97-.76h-4a1 1 0 0 0 -.97.76l-.17.67-.59-.36a1.014 1.014 0 0 0 -1.22.15l-.2.2c-2.14-.53-2.85-1.25-2.85-1.42zm13.1 10.37a1.007 1.007 0 0 0 .68.59l1.22.3v2.44l-1.22.3a1.007 1.007 0 0 0 -.68.59.989.989 0 0 0 .07.9l.64 1.08-1.72 1.72-1.08-.65a1.019 1.019 0 0 0 -.9-.06 1.007 1.007 0 0 0 -.59.68l-.3 1.22h-2.44l-.3-1.22a1.007 1.007 0 0 0 -.59-.68 1.019 1.019 0 0 0 -.9.06l-1.08.65-1.72-1.72.64-1.08a.989.989 0 0 0 .07-.9 1.007 1.007 0 0 0 -.68-.59l-1.22-.3v-2.44l1.22-.3a1.007 1.007 0 0 0 .68-.59.989.989 0 0 0 -.07-.9l-.64-1.08 1.72-1.72 1.08.65a1.019 1.019 0 0 0 .9.06 1.007 1.007 0 0 0 .59-.68l.3-1.22h2.44l.3 1.22a1.007 1.007 0 0 0 .59.68 1.019 1.019 0 0 0 .9-.06l1.08-.65 1.72 1.72-.64 1.08a.989.989 0 0 0 -.07.9zm6.9 27.11a1 1 0 0 1 0 2h-24a1 1 0 0 1 0-2zm-17-2v-4h10v4zm33-7a1 1 0 0 1 -1 1h-54a1 1 0 0 1 -1-1v-3h56zm0-5h-56v-27a1 1 0 0 1 1-1h17v8c0 1.27 1.15 2.32 3.24 3.03l-1.02 1.02a1 1 0 0 0 -.15 1.22l.36.59-.67.17a1 1 0 0 0 -.76.97v4a1 1 0 0 0 .76.97l.67.17-.36.59a1 1 0 0 0 .15 1.22l2.83 2.83a1.012 1.012 0 0 0 1.22.15l.59-.36.17.67a1 1 0 0 0 .97.76h4a1 1 0 0 0 .97-.76l.17-.67.59.36a1.014 1.014 0 0 0 1.22-.15l2.83-2.83a1 1 0 0 0 .15-1.22l-.36-.59.67-.17a1 1 0 0 0 .76-.97v-4a1 1 0 0 0 -.76-.97l-.67-.17.36-.59a1 1 0 0 0 -.15-1.22l-1.02-1.02c2.09-.71 3.24-1.76 3.24-3.03v-8h17a1 1 0 0 1 1 1z"/><path d="m32 29a4 4 0 1 0 4 4 4 4 0 0 0 -4-4zm0 6a2 2 0 1 1 2-2 2 2 0 0 1 -2 2z"/></g></svg>