<?xml version="1.0"?>
<svg xmlns="http://www.w3.org/2000/svg" id="Outline" viewBox="0 0 512 512" width="512" height="512"><path d="M472,24H40A24.028,24.028,0,0,0,16,48V464a24.028,24.028,0,0,0,24,24H472a24.028,24.028,0,0,0,24-24V48A24.028,24.028,0,0,0,472,24ZM40,40H472a8.009,8.009,0,0,1,8,8V88H32V48A8.009,8.009,0,0,1,40,40ZM472,472H40a8.009,8.009,0,0,1-8-8V104H480V464A8.009,8.009,0,0,1,472,472Z"/><circle cx="120" cy="64" r="8"/><circle cx="88" cy="64" r="8"/><circle cx="56" cy="64" r="8"/><path d="M440,136H72a8,8,0,0,0-8,8V272a8,8,0,0,0,8,8H440a8,8,0,0,0,8-8V144A8,8,0,0,0,440,136ZM308.849,254.465,328,235.313,356.686,264H316ZM296,264H232l32-42.667Zm-84,0H151.365L192,205.95l30.673,43.819Zm220,0H379.314l-45.657-45.657a8,8,0,0,0-11.314,0l-23.192,23.192L270.4,203.2a8,8,0,0,0-12.8,0l-24.825,33.1-34.221-48.888a8,8,0,0,0-13.108,0L131.835,264H80V152H432Z"/><path d="M136,344a8,8,0,0,0,0-16H104a8,8,0,0,0,0,16Z"/><path d="M160,336a8,8,0,0,0,8,8H296a8,8,0,0,0,0-16H168A8,8,0,0,0,160,336Z"/><path d="M64,368a8,8,0,0,0,8,8H248a8,8,0,0,0,0-16H72A8,8,0,0,0,64,368Z"/><path d="M72,408h48a8,8,0,0,0,0-16H72a8,8,0,0,0,0,16Z"/><path d="M200,424H72a8,8,0,0,0,0,16H200a8,8,0,0,0,0-16Z"/><path d="M440,328H328a8,8,0,0,0,0,16H440a8,8,0,0,0,0-16Z"/><path d="M440,360H280a8,8,0,0,0,0,16H440a8,8,0,0,0,0-16Z"/><path d="M144,400a8,8,0,0,0,8,8H376a8,8,0,0,0,0-16H152A8,8,0,0,0,144,400Z"/><path d="M440,392H408a8,8,0,0,0,0,16h32a8,8,0,0,0,0-16Z"/><path d="M440,424H232a8,8,0,0,0,0,16H440a8,8,0,0,0,0-16Z"/><path d="M386.343,229.657a8,8,0,0,0,11.314,0l16-16a8,8,0,0,0,0-11.314l-16-16a8,8,0,0,0-11.314,11.314L396.687,208l-10.344,10.343A8,8,0,0,0,386.343,229.657Z"/><path d="M114.343,229.657a8,8,0,0,0,11.314-11.314L115.313,208l10.344-10.343a8,8,0,0,0-11.314-11.314l-16,16a8,8,0,0,0,0,11.314Z"/><circle cx="304" cy="192" r="8"/><path d="M304,312a8,8,0,0,0,0-16H208a8,8,0,0,0,0,16Z"/></svg>
